# xmcd
#
# Track frame offsets:
#	150
#	14473
#	28558
#	41474
#	54545
#	68905
#	82228
#	100262
#	115063
#	130117
#
# Disc length: 1918 seconds
#
# Revision: 0
# Processed by: cddbd v1.5.1PL0 Copyright (c) Steve Scherf et al.
# Submitted via: audiograbber 1.83.01
#
DISCID=80077c0a
DTITLE=Walker, Clay - Rumor Has It - Walker, Clay - Rumor Has It
DYEAR=1900
DGENRE=Country
TTITLE0=Rumor Has It
TTITLE1=One, Two, I Love You
TTITLE2=I'd Say That's Right
TTITLE3=Heart Over Head Over Heels
TTITLE4=Watch This
TTITLE5=You'll Never Hear The End Of It
TTITLE6=Country Boy And City Girl
TTITLE7=I Need A Margarita
TTITLE8=That's Us
TTITLE9=Then What
EXTD=
EXTT0=\n
EXTT1=
EXTT2=
EXTT3=
EXTT4=
EXTT5=
EXTT6=
EXTT7=
EXTT8=
EXTT9=
PLAYORDER=
